<?xml version="1.0" standalone="no"?>
<!DOCTYPE svg PUBLIC "-//W3C//DTD SVG 20010904//EN"
 "http://www.w3.org/TR/2001/REC-SVG-20010904/DTD/svg10.dtd">
<svg version="1.0" xmlns="http://www.w3.org/2000/svg"
 width="600.000000pt" height="600.000000pt" viewBox="0 0 600.000000 600.000000"
 preserveAspectRatio="xMidYMid meet">
<metadata>
Created by potrace 1.11, written by Peter Selinger 2001-2013
</metadata>
<g transform="translate(0.000000,600.000000) scale(0.100000,-0.100000)"
fill="#000000" stroke="none">
<path d="M2270 5194 c-315 -55 -646 -237 -882 -485 -179 -188 -316 -439 -441
-809 -47 -139 -105 -342 -122 -432 -20 -97 -45 -242 -50 -283 -4 -27 -9 -61
-11 -75 -11 -69 -19 -223 -19 -380 0 -221 13 -353 50 -515 27 -118 40 -161 87
-295 30 -86 138 -312 162 -340 7 -8 15 -22 18 -30 3 -8 39 -60 80 -115 273
-366 639 -580 1072 -624 146 -15 360 -5 504 23 452 91 860 395 1039 776 39 82
78 190 88 241 22 113 28 158 30 254 3 146 -19 301 -60 406 -4 11 6 24 34 43
37 26 39 30 28 54 -6 15 -26 48 -44 74 l-33 48 16 66 c8 36 17 100 21 142 3
42 6 78 8 80 2 3 118 -115 161 -166 22 -25 46 -38 99 -53 100 -29 136 -33 265
-33 142 0 246 25 376 89 50 24 109 47 132 50 122 15 250 65 327 128 29 24 29
25 17 73 -10 41 -9 56 3 89 8 22 14 56 14 75 1 68 -64 177 -164 276 -51 50
-63 68 -67 102 -8 58 -47 129 -88 162 -47 37 -159 85 -315 135 -27 9 -63 22
-80 29 -16 7 -60 25 -96 40 -125 52 -203 132 -249 254 -12 31 -24 73 -27 93
l-5 36 -53 -9 c-95 -15 -123 -32 -153 -96 -14 -31 -33 -88 -42 -127 l-16 -70
-64 65 c-63 64 -133 151 -302 371 -263 343 -550 539 -927 634 -98 25 -259 39
-321 29z m840 -1799 c94 -18 226 -60 320 -101 52 -24 64 -34 80 -69 31 -69 60
-185 67 -270 l6 -80 -49 44 c-66 58 -195 141 -269 174 -58 25 -60 28 -70 74
-24 108 -44 121 -181 121 l-89 0 -3 62 c-4 73 2 81 61 69 23 -4 80 -15 127
-24z m-459 -30 c24 -69 24 -72 -18 -73 -21 -1 -51 -6 -68 -10 -28 -8 -30 -13
-35 -62 -5 -52 -6 -53 -46 -65 l-41 -12 -43 49 c-48 56 -64 57 -132 12 l-38
-24 -13 28 c-35 68 -35 69 45 106 80 37 218 82 283 92 22 3 42 8 45 10 2 3 13
4 24 2 13 -2 25 -19 37 -53z m-652 -292 c38 -46 39 -59 2 -77 -50 -26 -131
-107 -131 -131 0 -12 14 -49 30 -82 l30 -61 -30 -89 c-16 -49 -32 -114 -36
-144 -3 -30 -8 -56 -11 -59 -3 -3 -31 24 -63 58 -57 62 -120 170 -120 205 0
26 54 130 116 222 52 78 156 195 174 195 5 0 22 -17 39 -37z m868 -363 c192
-39 326 -178 382 -396 16 -62 20 -102 17 -189 -4 -124 -7 -141 -41 -230 -150
-400 -683 -565 -1120 -347 -236 117 -438 367 -481 597 -7 38 -22 149 -20 152
1 1 22 -12 46 -29 25 -16 70 -43 101 -58 51 -26 57 -32 63 -70 3 -22 14 -59
23 -81 16 -40 16 -41 57 -35 41 6 41 6 71 -45 99 -168 290 -276 505 -286 192
-9 350 46 461 159 80 81 103 142 103 268 0 83 -3 101 -26 145 -57 109 -169
186 -293 201 l-60 7 58 -53 c68 -62 97 -113 104 -184 15 -148 -146 -245 -326
-196 -92 24 -179 106 -205 189 -66 221 113 447 389 493 36 6 133 0 192 -12z"/>
</g>
</svg>
